<?xml version="1.0" encoding="UTF-8"?>
<svg width="461px" height="33px" viewBox="0 0 461 33" version="1.1" xmlns="http://www.w3.org/2000/svg" xmlns:xlink="http://www.w3.org/1999/xlink">
    <!-- Generator: Sketch 52.6 (67491) - http://www.bohemiancoding.com/sketch -->
    <title>SandroTchikovani.com</title>
    <desc>Created with Sketch.</desc>
    <defs>
        <path d="M55.7578125,133.328125 C55.7578125,135.098967 55.3085982,136.671217 54.4101562,138.044922 C53.5117143,139.418627 52.2161543,140.486324 50.5234375,141.248047 C48.8307207,142.009769 46.8450635,142.390625 44.5664062,142.390625 C42.6653551,142.390625 41.0703189,142.257163 39.78125,141.990234 C38.4921811,141.723306 37.1510486,141.257816 35.7578125,140.59375 L35.7578125,133.71875 C37.229174,134.473962 38.7591066,135.063149 40.3476562,135.486328 C41.9362059,135.909507 43.3945246,136.121094 44.7226562,136.121094 C45.8684953,136.121094 46.7083307,135.922528 47.2421875,135.525391 C47.7760443,135.128253 48.0429688,134.617191 48.0429688,133.992188 C48.0429688,133.601561 47.9355479,133.259767 47.7207031,132.966797 C47.5058583,132.673827 47.1608097,132.377606 46.6855469,132.078125 C46.2102841,131.778644 44.9440207,131.166671 42.8867188,130.242188 C41.0247303,129.395829 39.6282599,128.575525 38.6972656,127.78125 C37.7662714,126.986975 37.0761741,126.075526 36.6269531,125.046875 C36.1777321,124.018224 35.953125,122.800788 35.953125,121.394531 C35.953125,118.76431 36.9101467,116.713549 38.8242188,115.242188 C40.7382908,113.770826 43.3684729,113.035156 46.7148438,113.035156 C49.6705877,113.035156 52.6848805,113.718743 55.7578125,115.085938 L53.3945312,121.042969 C50.7252471,119.819004 48.4205826,119.207031 46.4804688,119.207031 C45.4778596,119.207031 44.7487002,119.382811 44.2929688,119.734375 C43.8372373,120.085939 43.609375,120.522133 43.609375,121.042969 C43.609375,121.602867 43.8990856,122.104164 44.4785156,122.546875 C45.0579456,122.989586 46.6301955,123.796869 49.1953125,124.96875 C51.6562623,126.075526 53.3652296,127.263666 54.3222656,128.533203 C55.2793017,129.802741 55.7578125,131.401032 55.7578125,133.328125 Z M74.15625,142 L72.6914062,139.070312 L72.5351562,139.070312 C71.5065053,140.346361 70.4583387,141.218748 69.390625,141.6875 C68.3229113,142.156252 66.9427168,142.390625 65.25,142.390625 C63.1666563,142.390625 61.5260477,141.765631 60.328125,140.515625 C59.1302023,139.265619 58.53125,137.507824 58.53125,135.242188 C58.53125,132.885405 59.3515543,131.130865 60.9921875,129.978516 C62.6328207,128.826166 65.009099,128.178386 68.1210938,128.035156 L71.8125,127.917969 L71.8125,127.605469 C71.8125,125.782543 70.9140715,124.871094 69.1171875,124.871094 C67.5025961,124.871094 65.4518354,125.417963 62.9648438,126.511719 L60.7578125,121.472656 C63.3359504,120.144525 66.5911262,119.480469 70.5234375,119.480469 C73.3619934,119.480469 75.559237,120.183587 77.1152344,121.589844 C78.6712317,122.996101 79.4492188,124.962227 79.4492188,127.488281 L79.4492188,142 L74.15625,142 Z M68.4921875,137 C69.4166713,137 70.207679,136.707034 70.8652344,136.121094 C71.5227897,135.535153 71.8515625,134.773442 71.8515625,133.835938 L71.8515625,132.117188 L70.09375,132.195312 C67.5807166,132.286459 66.3242188,133.210929 66.3242188,134.96875 C66.3242188,136.322923 67.0468678,137 68.4921875,137 Z M98.609375,142 L98.609375,129.929688 C98.609375,128.458326 98.3977886,127.348311 97.9746094,126.599609 C97.5514302,125.850908 96.8710984,125.476562 95.9335938,125.476562 C94.6445248,125.476562 93.7135445,125.99088 93.140625,127.019531 C92.5677055,128.048182 92.28125,129.812488 92.28125,132.3125 L92.28125,142 L84.6445312,142 L84.6445312,119.871094 L90.40625,119.871094 L91.3632812,122.605469 L91.8125,122.605469 C92.4635449,121.563797 93.3652286,120.782555 94.5175781,120.261719 C95.6699276,119.740883 96.9947842,119.480469 98.4921875,119.480469 C100.940116,119.480469 102.844394,120.190097 104.205078,121.609375 C105.565762,123.028653 106.246094,125.027331 106.246094,127.605469 L106.246094,142 L98.609375,142 Z M118.316406,142.390625 C116.740878,142.390625 115.363938,141.941411 114.185547,141.042969 C113.007156,140.144527 112.095706,138.822925 111.451172,137.078125 C110.806637,135.333325 110.484375,133.295585 110.484375,130.964844 C110.484375,127.371076 111.207024,124.558604 112.652344,122.527344 C114.097663,120.496084 116.083321,119.480469 118.609375,119.480469 C119.84636,119.480469 120.930334,119.727862 121.861328,120.222656 C122.792322,120.71745 123.641923,121.550775 124.410156,122.722656 L124.566406,122.722656 C124.319009,120.990877 124.195312,119.259123 124.195312,117.527344 L124.195312,111.609375 L131.890625,111.609375 L131.890625,142 L126.128906,142 L124.488281,139.207031 L124.195312,139.207031 C122.880202,141.329438 120.920586,142.390625 118.316406,142.390625 Z M121.441406,136.355469 C122.665371,136.355469 123.527992,135.971358 124.029297,135.203125 C124.530601,134.434892 124.800781,133.250008 124.839844,131.648438 L124.839844,131.042969 C124.839844,129.089834 124.559899,127.699874 124,126.873047 C123.440101,126.04622 122.561204,125.632812 121.363281,125.632812 C120.360672,125.632812 119.582685,126.104813 119.029297,127.048828 C118.475909,127.992843 118.199219,129.337231 118.199219,131.082031 C118.199219,132.80079 118.479164,134.109371 119.039062,135.007812 C119.598961,135.906254 120.399734,136.355469 121.441406,136.355469 Z M150.523438,119.480469 C151.187503,119.480469 151.819007,119.532552 152.417969,119.636719 L152.847656,119.714844 L152.164062,126.921875 C151.539059,126.765624 150.673183,126.6875 149.566406,126.6875 C147.899731,126.6875 146.688806,127.068356 145.933594,127.830078 C145.178382,128.591801 144.800781,129.688795 144.800781,131.121094 L144.800781,142 L137.164062,142 L137.164062,119.871094 L142.847656,119.871094 L144.039062,123.40625 L144.410156,123.40625 C145.04818,122.234369 145.936843,121.287113 147.076172,120.564453 C148.2155,119.841793 149.364578,119.480469 150.523438,119.480469 Z M176.265625,130.886719 C176.265625,134.506529 175.292327,137.328766 173.345703,139.353516 C171.399079,141.378265 168.674497,142.390625 165.171875,142.390625 C161.812483,142.390625 159.139984,141.355479 157.154297,139.285156 C155.16861,137.214833 154.175781,134.415382 154.175781,130.886719 C154.175781,127.27993 155.149079,124.477224 157.095703,122.478516 C159.042327,120.479808 161.77342,119.480469 165.289062,119.480469 C167.463553,119.480469 169.384106,119.942704 171.050781,120.867188 C172.717456,121.791671 174.003251,123.116528 174.908203,124.841797 C175.813156,126.567066 176.265625,128.58202 176.265625,130.886719 Z M161.929688,130.886719 C161.929688,132.78777 162.183591,134.236323 162.691406,135.232422 C163.199221,136.228521 164.052077,136.726562 165.25,136.726562 C166.434902,136.726562 167.271482,136.228521 167.759766,135.232422 C168.248049,134.236323 168.492188,132.78777 168.492188,130.886719 C168.492188,128.998688 168.244794,127.572921 167.75,126.609375 C167.255206,125.645829 166.40886,125.164062 165.210938,125.164062 C164.039057,125.164062 163.199221,125.642573 162.691406,126.599609 C162.183591,127.556645 161.929688,128.985668 161.929688,130.886719 Z M193.667969,142 L185.953125,142 L185.953125,119.753906 L178.980469,119.753906 L178.980469,113.445312 L200.621094,113.445312 L200.621094,119.753906 L193.667969,119.753906 L193.667969,142 Z M211.539062,142.390625 C207.919253,142.390625 205.17514,141.414072 203.306641,139.460938 C201.438142,137.507803 200.503906,134.701841 200.503906,131.042969 C200.503906,127.371075 201.513011,124.526052 203.53125,122.507812 C205.549489,120.489573 208.420554,119.480469 212.144531,119.480469 C214.709648,119.480469 217.124989,120.040359 219.390625,121.160156 L217.144531,126.804688 C216.220047,126.40104 215.367191,126.078777 214.585938,125.837891 C213.804684,125.597004 212.99089,125.476562 212.144531,125.476562 C210.907546,125.476562 209.950524,125.958329 209.273438,126.921875 C208.596351,127.885421 208.257812,129.246085 208.257812,131.003906 C208.257812,134.545591 209.566393,136.316406 212.183594,136.316406 C214.423188,136.316406 216.571604,135.665371 218.628906,134.363281 L218.628906,140.4375 C216.662751,141.73959 214.299493,142.390625 211.539062,142.390625 Z M236.949219,142 L236.949219,129.929688 C236.949219,126.960923 236.070321,125.476562 234.3125,125.476562 C233.062494,125.476562 232.141279,126.000646 231.548828,127.048828 C230.956377,128.09701 230.660156,129.838529 230.660156,132.273438 L230.660156,142 L223.023438,142 L223.023438,111.609375 L230.660156,111.609375 L230.660156,115.925781 C230.660156,117.878916 230.555991,120.105456 230.347656,122.605469 L230.699219,122.605469 C231.428389,121.45963 232.294266,120.652346 233.296875,120.183594 C234.299484,119.714841 235.464837,119.480469 236.792969,119.480469 C239.266939,119.480469 241.190748,120.193352 242.564453,121.619141 C243.938158,123.044929 244.625,125.040352 244.625,127.605469 L244.625,142 L236.949219,142 Z M257.496094,142 L249.859375,142 L249.859375,119.871094 L257.496094,119.871094 L257.496094,142 Z M249.664062,114.363281 C249.664062,113.217442 249.98307,112.364586 250.621094,111.804688 C251.259118,111.244789 252.287753,110.964844 253.707031,110.964844 C255.126309,110.964844 256.161455,111.251299 256.8125,111.824219 C257.463545,112.397138 257.789062,113.243484 257.789062,114.363281 C257.789062,116.602876 256.428399,117.722656 253.707031,117.722656 C251.011705,117.722656 249.664062,116.602876 249.664062,114.363281 Z M270.230469,129.558594 C271.154953,128.087232 271.942705,126.94141 272.59375,126.121094 L277.554688,119.871094 L286.070312,119.871094 L278.394531,129.285156 L286.558594,142 L277.828125,142 L272.984375,134.070312 L270.503906,135.964844 L270.503906,142 L262.828125,142 L262.828125,111.609375 L270.503906,111.609375 L270.503906,123.5625 C270.503906,125.606781 270.360679,127.605459 270.074219,129.558594 L270.230469,129.558594 Z M309.527344,130.886719 C309.527344,134.506529 308.554046,137.328766 306.607422,139.353516 C304.660798,141.378265 301.936215,142.390625 298.433594,142.390625 C295.074202,142.390625 292.401703,141.355479 290.416016,139.285156 C288.430329,137.214833 287.4375,134.415382 287.4375,130.886719 C287.4375,127.27993 288.410798,124.477224 290.357422,122.478516 C292.304046,120.479808 295.035139,119.480469 298.550781,119.480469 C300.725271,119.480469 302.645825,119.942704 304.3125,120.867188 C305.979175,121.791671 307.264969,123.116528 308.169922,124.841797 C309.074874,126.567066 309.527344,128.58202 309.527344,130.886719 Z M295.191406,130.886719 C295.191406,132.78777 295.44531,134.236323 295.953125,135.232422 C296.46094,136.228521 297.313796,136.726562 298.511719,136.726562 C299.696621,136.726562 300.533201,136.228521 301.021484,135.232422 C301.509768,134.236323 301.753906,132.78777 301.753906,130.886719 C301.753906,128.998688 301.506513,127.572921 301.011719,126.609375 C300.516925,125.645829 299.670579,125.164062 298.472656,125.164062 C297.300775,125.164062 296.46094,125.642573 295.953125,126.599609 C295.44531,127.556645 295.191406,128.985668 295.191406,130.886719 Z M318.882812,142 L310.445312,119.871094 L318.414062,119.871094 L322.164062,132.957031 C322.177083,133.022136 322.203125,133.132812 322.242188,133.289062 C322.28125,133.445313 322.320312,133.630858 322.359375,133.845703 C322.398438,134.060548 322.434245,134.28841 322.466797,134.529297 C322.499349,134.770183 322.515625,134.994791 322.515625,135.203125 L322.652344,135.203125 C322.652344,134.526038 322.76953,133.790369 323.003906,132.996094 L326.929688,119.871094 L334.878906,119.871094 L326.441406,142 L318.882812,142 Z M351.949219,142 L350.484375,139.070312 L350.328125,139.070312 C349.299474,140.346361 348.251307,141.218748 347.183594,141.6875 C346.11588,142.156252 344.735686,142.390625 343.042969,142.390625 C340.959625,142.390625 339.319016,141.765631 338.121094,140.515625 C336.923171,139.265619 336.324219,137.507824 336.324219,135.242188 C336.324219,132.885405 337.144523,131.130865 338.785156,129.978516 C340.425789,128.826166 342.802068,128.178386 345.914062,128.035156 L349.605469,127.917969 L349.605469,127.605469 C349.605469,125.782543 348.70704,124.871094 346.910156,124.871094 C345.295565,124.871094 343.244804,125.417963 340.757812,126.511719 L338.550781,121.472656 C341.128919,120.144525 344.384095,119.480469 348.316406,119.480469 C351.154962,119.480469 353.352206,120.183587 354.908203,121.589844 C356.4642,122.996101 357.242188,124.962227 357.242188,127.488281 L357.242188,142 L351.949219,142 Z M346.285156,137 C347.20964,137 348.000648,136.707034 348.658203,136.121094 C349.315758,135.535153 349.644531,134.773442 349.644531,133.835938 L349.644531,132.117188 L347.886719,132.195312 C345.373685,132.286459 344.117188,133.210929 344.117188,134.96875 C344.117188,136.322923 344.839837,137 346.285156,137 Z M376.402344,142 L376.402344,129.929688 C376.402344,128.458326 376.190757,127.348311 375.767578,126.599609 C375.344399,125.850908 374.664067,125.476562 373.726562,125.476562 C372.437494,125.476562 371.506513,125.99088 370.933594,127.019531 C370.360674,128.048182 370.074219,129.812488 370.074219,132.3125 L370.074219,142 L362.4375,142 L362.4375,119.871094 L368.199219,119.871094 L369.15625,122.605469 L369.605469,122.605469 C370.256514,121.563797 371.158197,120.782555 372.310547,120.261719 C373.462896,119.740883 374.787753,119.480469 376.285156,119.480469 C378.733085,119.480469 380.637363,120.190097 381.998047,121.609375 C383.358731,123.028653 384.039062,125.027331 384.039062,127.605469 L384.039062,142 L376.402344,142 Z M396.910156,142 L389.273438,142 L389.273438,119.871094 L396.910156,119.871094 L396.910156,142 Z M389.078125,114.363281 C389.078125,113.217442 389.397132,112.364586 390.035156,111.804688 C390.67318,111.244789 391.701816,110.964844 393.121094,110.964844 C394.540372,110.964844 395.575518,111.251299 396.226562,111.824219 C396.877607,112.397138 397.203125,113.243484 397.203125,114.363281 C397.203125,116.602876 395.842462,117.722656 393.121094,117.722656 C390.425768,117.722656 389.078125,116.602876 389.078125,114.363281 Z M401.285156,138.757812 C401.285156,137.55989 401.63997,136.63542 402.349609,135.984375 C403.059248,135.33333 404.091139,135.007812 405.445312,135.007812 C406.734381,135.007812 407.723955,135.33333 408.414062,135.984375 C409.10417,136.63542 409.449219,137.55989 409.449219,138.757812 C409.449219,139.929693 409.094405,140.844398 408.384766,141.501953 C407.675127,142.159508 406.695319,142.488281 405.445312,142.488281 C404.156244,142.488281 403.140629,142.162764 402.398438,141.511719 C401.656246,140.860674 401.285156,139.942714 401.285156,138.757812 Z M423.882812,142.390625 C420.263003,142.390625 417.51889,141.414072 415.650391,139.460938 C413.781892,137.507803 412.847656,134.701841 412.847656,131.042969 C412.847656,127.371075 413.856761,124.526052 415.875,122.507812 C417.893239,120.489573 420.764304,119.480469 424.488281,119.480469 C427.053398,119.480469 429.468739,120.040359 431.734375,121.160156 L429.488281,126.804688 C428.563797,126.40104 427.710941,126.078777 426.929688,125.837891 C426.148434,125.597004 425.33464,125.476562 424.488281,125.476562 C423.251296,125.476562 422.294274,125.958329 421.617188,126.921875 C420.940101,127.885421 420.601562,129.246085 420.601562,131.003906 C420.601562,134.545591 421.910143,136.316406 424.527344,136.316406 C426.766938,136.316406 428.915354,135.665371 430.972656,134.363281 L430.972656,140.4375 C429.006501,141.73959 426.643243,142.390625 423.882812,142.390625 Z M456.5,130.886719 C456.5,134.506529 455.526702,137.328766 453.580078,139.353516 C451.633454,141.378265 448.908872,142.390625 445.40625,142.390625 C442.046858,142.390625 439.374359,141.355479 437.388672,139.285156 C435.402985,137.214833 434.410156,134.415382 434.410156,130.886719 C434.410156,127.27993 435.383454,124.477224 437.330078,122.478516 C439.276702,120.479808 442.007795,119.480469 445.523438,119.480469 C447.697928,119.480469 449.618481,119.942704 451.285156,120.867188 C452.951831,121.791671 454.237626,123.116528 455.142578,124.841797 C456.047531,126.567066 456.5,128.58202 456.5,130.886719 Z M442.164062,130.886719 C442.164062,132.78777 442.417966,134.236323 442.925781,135.232422 C443.433596,136.228521 444.286452,136.726562 445.484375,136.726562 C446.669277,136.726562 447.505857,136.228521 447.994141,135.232422 C448.482424,134.236323 448.726562,132.78777 448.726562,130.886719 C448.726562,128.998688 448.479169,127.572921 447.984375,126.609375 C447.489581,125.645829 446.643235,125.164062 445.445312,125.164062 C444.273432,125.164062 443.433596,125.642573 442.925781,126.599609 C442.417966,127.556645 442.164062,128.985668 442.164062,130.886719 Z M488.023438,142 L488.023438,129.96875 C488.023438,128.471347 487.818361,127.348311 487.408203,126.599609 C486.998045,125.850908 486.350265,125.476562 485.464844,125.476562 C484.292963,125.476562 483.433596,125.97786 482.886719,126.980469 C482.339841,127.983078 482.066406,129.552073 482.066406,131.6875 L482.066406,142 L474.410156,142 L474.410156,129.96875 C474.410156,128.471347 474.214846,127.348311 473.824219,126.599609 C473.433592,125.850908 472.802088,125.476562 471.929688,125.476562 C470.731765,125.476562 469.859378,126.010411 469.3125,127.078125 C468.765622,128.145839 468.492188,129.890613 468.492188,132.3125 L468.492188,142 L460.855469,142 L460.855469,119.871094 L466.617188,119.871094 L467.574219,122.605469 L468.023438,122.605469 C468.609378,121.589839 469.458979,120.815107 470.572266,120.28125 C471.685552,119.747393 472.951816,119.480469 474.371094,119.480469 C477.561214,119.480469 479.800775,120.450511 481.089844,122.390625 L481.695312,122.390625 C482.320316,121.479162 483.189448,120.766279 484.302734,120.251953 C485.416021,119.737628 486.643222,119.480469 487.984375,119.480469 C490.601576,119.480469 492.53515,120.151035 493.785156,121.492188 C495.035163,122.83334 495.660156,124.87108 495.660156,127.605469 L495.660156,142 L488.023438,142 Z" id="path-1"></path>
    </defs>
    <g id="Welcome" stroke="none" stroke-width="1" fill="none" fill-rule="evenodd">
        <g id="Desktop-Projects-HD" transform="translate(-384.000000, -403.000000)">
            <g id="Sandro-Project" transform="translate(349.000000, 293.000000)">
                <g id="SandroTchikovani.com">
                    <use fill="#4A4A4A" xlink:href="#path-1"></use>
                    <use fill="#FFFFFF" xlink:href="#path-1"></use>
                </g>
            </g>
        </g>
    </g>
</svg>