<?xml version="1.0" encoding="UTF-8"?>
<svg width="374px" height="90px" viewBox="0 0 374 90" version="1.1" xmlns="http://www.w3.org/2000/svg" xmlns:xlink="http://www.w3.org/1999/xlink">
    <!-- Generator: Sketch 52.6 (67491) - http://www.bohemiancoding.com/sketch -->
    <title>TinderLogo</title>
    <desc>Created with Sketch.</desc>
    <defs>
        <linearGradient x1="100%" y1="0%" x2="0%" y2="100%" id="linearGradient-1">
            <stop stop-color="#FF7854" offset="0%"></stop>
            <stop stop-color="#FD267D" offset="100%"></stop>
        </linearGradient>
    </defs>
    <g id="Page-1" stroke="none" stroke-width="1" fill="none" fill-rule="evenodd">
        <g id="TinderLogo">
            <path d="M22.68,36.432 C39.6,30.6 42.48,15.408 40.32,1.44 C40.32,0.936 40.752,0.576 41.184,0.72 C57.384,8.64 75.6,25.92 75.6,51.84 C75.6,71.712 60.192,89.28 37.8,89.28 C21.3633862,90.0274077 6.51171316,79.5358884 1.72308411,63.794544 C-3.06554494,48.0531996 3.42764284,31.0684216 17.496,22.536 C17.928,22.248 18.504,22.536 18.504,23.04 C18.72,25.704 19.44,32.4 22.392,36.432 L22.68,36.432 Z" id="Path" fill="url(#linearGradient-1)"></path>
            <path d="M123.264,73.512 L124.488,72.072 L128.304,84.168 L127.8,84.672 C124.92,87.336 120.6,88.704 115.056,88.704 L114.84,88.704 C109.8,88.704 105.84,87.264 103.104,84.6 C100.368,81.864 98.928,77.76 98.928,72.576 L98.928,39.6 L89.208,39.6 L89.208,26.28 L98.928,26.28 L98.928,10.224 L113.904,10.224 L113.904,26.28 L125.784,26.28 L125.784,39.6 L113.832,39.6 L113.832,69.336 C113.832,70.704 114.192,75.096 118.368,75.096 C120.528,75.096 122.544,74.304 123.264,73.44 L123.264,73.512 Z M131.184,87.336 L131.184,26.352 L146.16,26.352 L146.16,87.336 L131.184,87.336 Z M138.6,1.44 C143.561155,1.44015876 147.586556,5.45505395 147.599681,10.4161918 C147.612805,15.3773296 143.608701,19.4134658 138.647616,19.4398725 C133.686531,19.4662792 129.639689,15.4729964 129.6,10.512 C129.6,5.616 133.704,1.44 138.6,1.44 Z M186.408,24.84 C199.368,24.84 206.496,31.896 206.496,44.784 L206.496,87.264 L191.52,87.264 L191.52,48.384 C191.232,41.472 187.92,38.304 180.864,38.304 C174.528,38.304 169.416,42.192 166.824,45.504 L166.824,87.264 L151.848,87.264 L151.848,26.424 L166.824,26.424 L166.824,32.904 C171.144,28.728 178.056,24.984 186.408,24.984 L186.408,24.84 Z M256.32,32.688 L256.32,4.032 L271.296,4.032 L271.296,87.408 L256.32,87.408 L256.32,81.072 C251.689404,85.9559881 245.266108,88.7385496 238.536,88.776 C222.192,88.776 211.248,75.96 211.248,56.88 C211.248,37.728 222.192,24.912 238.536,24.912 C245.282227,24.9427767 251.716715,27.7562369 256.32,32.688 Z M256.32,45.576 C252.939945,41.1737163 247.756107,38.5289012 242.208,38.376 C232.92,38.376 226.728,45.792 226.728,56.88 C226.728,67.896 232.92,75.312 242.208,75.312 C247.608,75.312 253.512,72.432 256.32,68.256 L256.32,45.576 Z M306.288,24.912 C324,24.912 336.312,38.592 336.312,58.032 L336.312,62.136 L291.024,62.136 C292.536,70.704 299.304,76.176 308.52,76.176 C314.352,76.176 320.76,73.656 324.432,69.984 L325.44,69.12 L332.568,79.344 L331.848,79.992 C325.10138,85.97389 316.306057,89.1206037 307.296,88.776 C288.576,88.776 275.4,75.6 275.4,56.808 C275.10589,48.4245606 278.242164,40.2835234 284.084821,34.264228 C289.927478,28.2449326 297.97152,24.8676435 306.36,24.912 L306.288,24.912 Z M290.952,50.832 L321.696,50.832 C320.832,41.688 313.272,37.512 306.288,37.512 C295.776,37.512 291.816,45.432 290.952,50.904 L290.952,50.832 Z M372.528,24.912 L373.608,24.912 L373.608,40.032 L372.312,39.816 C371.232,39.6 369.864,39.456 368.496,39.456 C363.672,39.456 356.976,42.84 354.456,46.44 L354.456,87.264 L339.48,87.264 L339.48,26.352 L354.528,26.352 L354.528,33.12 C359.496,27.936 366.048,24.912 372.528,24.912 Z" id="Shape" fill="#424242" fill-rule="nonzero"></path>
        </g>
    </g>
</svg>