<?xml version="1.0" encoding="UTF-8"?>
<svg width="428px" height="65px" viewBox="0 0 428 65" version="1.1" xmlns="http://www.w3.org/2000/svg" xmlns:xlink="http://www.w3.org/1999/xlink">
    <!-- Generator: Sketch 52.5 (67469) - http://www.bohemiancoding.com/sketch -->
    <title>TA_logo_primary</title>
    <desc>Created with Sketch.</desc>
    <g id="Welcome" stroke="none" stroke-width="1" fill="none" fill-rule="evenodd">
        <g id="Desktop-Projects-HD" transform="translate(-398.000000, -881.000000)">
            <g id="TripAdvisor-Project" transform="translate(349.000000, 782.000000)">
                <g id="TA_logo_primary" transform="translate(49.000000, 99.000000)">
                    <path d="M15,10.2838238 C23.1288433,9.22981435 46.1913697,8.50374584 39.8729205,42 L47.0396464,41.413959 C43.9002953,20.7668008 50.4668243,10.239136 71,9.22981435 C36.9447743,-9.72525845 17.5553214,9.95232166 15,10.2838238 Z" id="Path" fill="#FAC415"></path>
                    <path d="M46.2124372,37.2584031 C49.9449907,47.3568084 61.1572848,52.5178478 71.2564538,48.7862094 C81.3556229,45.0545711 86.5177279,33.8431987 82.7866404,23.7442517 C79.055553,13.6453047 67.8440082,8.48263787 57.7442976,12.2128102 C47.6452203,15.9466735 42.4831,27.1580792 46.2124372,37.2584031 Z" id="Path" fill="#FFFFFF"></path>
                    <circle id="Oval" fill="#FFFFFF" cx="21.5" cy="29.5" r="19.5"></circle>
                    <circle id="Oval" fill="#EE6946" cx="21.5" cy="29.5" r="3.5"></circle>
                    <circle id="Oval" fill="#00AF87" cx="64.5" cy="29.5" r="3.5"></circle>
                    <path d="M82.6797951,17.6003331 C83.5905976,14.5062821 85.0397355,11.5928334 86.962179,8.99072742 L72.4292297,8.97968465 C63.7383694,3.59953545 53.6539708,0.831577382 43.4018935,1.01228343 C32.8986252,0.789815712 22.5567447,3.59341099 13.6368848,9.08132251 L0,9.08884934 C1.90502371,11.6711467 3.34688464,14.5580504 4.26258486,17.6234257 C-2.76013642,27.0558589 -0.859307071,40.3102728 8.5386691,47.4404055 C17.9366453,54.5705382 31.3768055,52.9551506 38.7735018,43.8064477 L43.4079868,50.6671996 L48.0871447,43.7487761 C55.4413772,53.0288743 68.9766794,54.7339849 78.4493216,47.5736535 C87.9219637,40.413322 89.807887,27.05137 82.6797951,17.6003331 Z M64.5064191,8.91972599 C53.388302,9.23908272 44.3141608,17.818036 43.4935178,28.7859252 C42.6669183,17.710874 33.4601518,9.07247171 22.2313597,8.83635052 C28.9381472,6.08105313 36.1395818,4.69654175 43.4018935,4.76621079 C50.6548161,4.65754272 57.848372,6.07328379 64.5064191,8.91972599 Z M21.7949877,47.5357294 C14.7641261,47.5364403 8.42524806,43.3490508 5.73455071,36.9263905 C3.04385337,30.5037302 4.53130982,23.1108382 9.50323035,18.1954611 C14.4751509,13.2800841 21.9522413,11.8103792 28.4474882,14.4717574 C34.9427351,17.1331357 39.1768024,23.4013988 39.1750918,30.3532817 C39.1623846,39.8386223 31.3880904,47.5245028 21.7949877,47.5357294 Z M71.2219222,46.5603644 C62.2154764,49.8427024 52.222458,45.2900407 48.8938461,36.3880446 L48.8938461,36.3832827 C45.5724226,27.4779426 50.1805345,17.5963637 59.1867185,14.3113727 C68.1929026,11.0263818 78.1871975,15.5817566 81.5103957,24.4864494 C84.833594,33.3911421 80.2274514,43.2736187 71.2219222,46.5603644 Z" id="Shape" fill="#000000" fill-rule="nonzero"></path>
                    <path d="M21.0162068,19.0000118 C16.5655716,18.9935191 12.5495966,21.6696143 10.8420764,25.779671 C9.13455626,29.8897276 10.0720144,34.6237226 13.2170467,37.7728438 C16.3620791,40.921965 21.0948527,41.8655735 25.2071252,40.1633956 C29.3193977,38.4612178 32.0007094,34.448724 31.9999999,29.9980848 C31.9900262,23.9337241 27.0805503,19.0178654 21.0162068,19.0000118 Z M21.0162068,37.2108259 C18.0982174,37.2165618 15.4643401,35.4632832 14.3435901,32.769102 C13.2228401,30.0749209 13.8361178,26.9708616 15.8972566,24.905335 C17.9583954,22.8398083 21.0611439,22.2199307 23.7577028,23.3349482 C26.4542618,24.4499657 28.2131382,27.080108 28.2136081,29.9981025 C28.2045351,33.971841 24.9899175,37.1933019 21.0162068,37.2108259 Z" id="Shape" fill="#000000" fill-rule="nonzero"></path>
                    <path d="M64.0058272,19.0000015 C59.5561318,18.9977092 55.5433406,21.6764711 53.8390923,25.7868641 C52.1348439,29.897257 53.0748678,34.6295517 56.2207198,37.7765198 C59.3665717,40.923488 64.0985327,41.8651908 68.2095303,40.162401 C72.3205278,38.4596112 75.0007134,34.4477709 74.9999999,29.9980751 C74.992011,23.9288415 70.0750578,19.0101437 64.0058272,19.0000015 Z M64.0058272,37.2108166 C61.0889035,37.2118234 58.4586174,35.4555481 57.3415525,32.7609962 C56.2244877,30.0664443 56.84065,26.9643076 58.9027039,24.9012085 C60.9647578,22.8381095 64.0665819,22.2203752 66.7616997,23.3360743 C69.4568174,24.4517735 71.2144256,27.0811692 71.214897,29.9980928 C71.2097862,33.9780252 67.9857566,37.2036889 64.0058272,37.2108166 Z" id="Shape" fill="#000000" fill-rule="nonzero"></path>
                    <path d="M306,6.00288207 C306.001591,8.21158089 307.793056,10.0009694 310.001756,9.99999961 C312.210455,9.99902979 314.000348,8.20806872 314,5.99936935 C313.999652,3.79066999 312.209194,2.00027338 310.000495,2 C307.791344,2.00287863 306.00156,3.7937301 306,6.00288207 Z" id="Path" fill="#00AF87"></path>
                    <path d="M108.176916,6.17097259 L101.929779,8.35829024 L101.929779,16.6479944 L95,16.6479944 L95,22.205742 L101.730026,22.205742 L101.730026,40.0475911 C101.730026,48.5404717 104.581435,51.9999069 111.562354,51.9999069 C113.306378,52.0053316 115.04328,51.7737157 116.726848,51.3112213 L117,51.2356359 L116.923104,45.4810421 L116.441454,45.6520147 C115.395364,46.0754839 114.287911,46.3215163 113.163321,46.3802868 C109.88495,46.3802868 108.664474,44.4978634 108.664474,39.4380268 L108.664474,22.205742 L116.663416,22.205742 L116.663416,16.6479944 L108.664542,16.6479944 L108.664542,6 L108.176916,6.17097259 Z" id="Path" fill="#000000"></path>
                    <path d="M130.126901,22.1748374 L130.126901,16.6031624 L124,16.6031624 L124,51 L130.704596,51 L130.704596,33.7335348 C130.704596,26.4919659 133.625474,22.5058143 138.928191,22.5058143 C139.74698,22.5136874 140.560375,22.6446056 141.343136,22.8945068 L141.78289,23.0233424 L142,16.2292574 L139.118008,16 C135.208983,16.0236421 131.68229,18.4456744 130.126901,22.1748374 Z" id="Path" fill="#000000"></path>
                    <path d="M180.800899,16.0003696 C176.130245,15.9656364 171.783594,18.3812791 169.34945,22.3644892 L169.34945,16.8024256 L163,16.8024256 L163,65 L169.950419,65 L169.950419,46.312401 C172.387179,49.7135878 176.353388,51.6858949 180.538178,51.5774571 C189.324902,51.5774571 195,44.387293 195,33.2573856 C195,22.9345326 189.295637,16.0003696 180.800899,16.0003696 Z M178.868053,45.971633 C173.370127,45.971633 169.950453,41.2791025 169.950453,33.7224139 C169.950453,26.4454937 173.557031,21.7429667 179.13552,21.7429667 C184.508866,21.7429667 187.715825,26.1964631 187.715825,33.6589662 C187.715791,41.2546041 184.325603,45.971633 178.868002,45.971633 L178.868053,45.971633 Z" id="Shape" fill="#000000" fill-rule="nonzero"></path>
                    <path d="M214.344958,16.0036983 C210.477909,15.9375128 206.64729,16.760472 203.148252,18.4091657 L202.936795,18.5076837 L203.013597,24.3469444 L203.546073,24.0486435 C206.27337,22.3877604 209.380268,21.4532331 212.570792,21.3340887 C217.519608,21.3340887 220.357503,24.1735413 220.357503,29.1263408 L220.357503,29.4162504 L216.449751,29.4162504 C205.195193,29.4162504 199,33.4943969 199,40.8982213 C199,46.839467 203.468049,50.9910079 209.874699,50.9910079 C214.183658,51.1517436 218.288312,49.1492464 220.815386,45.6534824 L220.815386,50.5328875 L227,50.5328875 L227,30.1088745 C227,20.7495966 222.744647,16.0036983 214.344958,16.0036983 Z M220.357503,36.2920438 C220.357503,42.1081404 216.863324,45.858223 211.450465,45.858223 C209.986619,45.969005 208.543748,45.458355 207.475084,44.4512861 C206.406421,43.4442172 205.810617,42.033695 205.833531,40.5650322 C205.833531,36.4735869 209.742522,34.2220601 216.841613,34.2220601 L220.357503,34.2220601 L220.357453,36.2920438 L220.357503,36.2920438 Z" id="Shape" fill="#00AF87" fill-rule="nonzero"></path>
                    <path d="M258.018907,0 L258.018907,20.9462684 C255.598108,17.4316441 251.540511,15.382538 247.252792,15.509328 C238.727194,15.509328 233,22.4806775 233,32.8539133 C233,43.537816 238.804339,50.9960068 247.120372,50.9960068 C251.822247,51.1126777 256.211179,48.6653614 258.556443,44.6191298 L258.556443,50.4688229 L265,50.4688229 L265,0 L258.018958,0 L258.018907,0 Z M248.934995,45.2693256 C243.61637,45.2693256 240.312159,40.6665391 240.312159,33.2547278 C240.312159,25.8341663 243.644494,21.0388749 248.797552,21.0388749 C254.573767,21.0388749 258.018907,25.6065079 258.018907,33.2547278 C258.018907,40.5545668 254.452368,45.2693256 248.934995,45.2693256 Z" id="Shape" fill="#00AF87" fill-rule="nonzero"></path>
                    <polygon id="Path" fill="#00AF87" points="296.75622 17 286.910795 36.6221452 277.820598 17 270 17 286.771899 51 304 17"></polygon>
                    <polygon id="Path" fill="#00AF87" points="313.628439 17 307 17 307 51 314 51 314 17 313.628439 17"></polygon>
                    <path d="M322.473725,25.169517 C322.473725,29.9839537 325.761219,32.5160072 331.821763,35.4945131 C335.648234,37.3878824 337.648818,38.4997265 337.648818,41.1673711 C337.648818,43.895935 335.187923,45.6671942 331.385785,45.6671942 C328.371907,45.5883399 325.414757,44.8248252 322.735528,43.4337604 L322.230299,43.1875706 L322,49.2127177 L322.241199,49.3113464 C325.069219,50.4318079 328.082124,51.0047247 331.121484,50.9999707 C339.551128,50.9999707 345,46.9583153 345,40.7004425 C345,35.4800134 341.547984,32.8380913 335.580484,30.0313919 C331.200152,27.9697476 329.368326,26.7555226 329.368326,24.5682706 C329.368326,22.4811585 331.406354,21.136351 334.563883,21.136351 C337.423281,21.1392099 340.245563,21.7879486 342.82254,23.034712 L343.314625,23.2711561 L343.627286,17.3642989 L343.348609,17.2789135 C340.628357,16.4517129 337.804327,16.0210305 334.962636,16 C327.492542,16.0000509 322.473725,19.683186 322.473725,25.169517 Z" id="Path" fill="#00AF87"></path>
                    <path d="M366.962654,16 C356.499201,16 350,22.8967601 350,33.9994708 C350,45.1021815 356.499201,52 366.962654,52 C377.47022,52 384,45.1019766 384,33.9994708 C384,22.8969649 377.47022,16 366.962654,16 Z M367.029829,46.2997186 C361.250528,46.2997186 357.361991,41.3262871 357.361991,33.9319346 C357.361991,26.4984194 361.250528,21.5006435 367.029829,21.5006435 C372.907412,21.5006435 376.702678,26.3769022 376.702678,33.9319346 C376.702678,41.4440485 372.907395,46.2997186 367.029829,46.2997186 Z" id="Shape" fill="#00AF87" fill-rule="nonzero"></path>
                    <path d="M397.124341,22.1748374 L397.124341,16.6031624 L391,16.6031624 L391,51 L397.704458,51 L397.704458,33.7335348 C397.704458,26.4919659 400.628475,22.5058143 405.92503,22.5058143 C406.74381,22.5130473 407.557234,22.6439797 408.339801,22.8945068 L408.780738,23.0233424 L409,16.2292574 L406.117247,16 C402.208085,16.0242528 398.68122,18.4459193 397.124341,22.1748374 Z" id="Path" fill="#00AF87"></path>
                    <polygon id="Path" fill="#000000" points="155.629947 17 149 17 149 51 156 51 156 17 155.629999 17"></polygon>
                    <path d="M148,6.00166287 C148.000918,8.21052302 149.792089,10.0005241 152.000949,9.99999988 C154.20981,9.99947566 156.00013,8.20862457 156,5.99976422 C155.99987,3.79090388 154.209338,2.00026385 152.000478,2 C149.792086,2.00355509 148.002901,3.79327079 148,6.00166287 Z" id="Path" fill="#000000"></path>
                    <g id="Group" opacity="0.5" transform="translate(415.000000, 10.000000)" fill="#00AF87" fill-rule="nonzero">
                        <path d="M11.1900455,1.95824909 C12.3716242,3.16517113 13.0230651,4.79349279 13,6.48235545 C13.0261831,8.21223478 12.3316611,9.87506212 11.0828486,11.0724073 C9.86641041,12.2685751 8.23188684,12.9438917 6.52589364,12.95515 C4.7896466,12.9553809 3.12939405,12.2430091 1.93321818,10.9845509 C0.745073895,9.7869608 0.0768531643,8.16931645 0.0734322727,6.48233773 C0.0787414084,4.73181636 0.786285484,3.05663993 2.03745455,1.83233227 C3.2286183,0.646825346 4.84535151,-0.0116273457 6.52584045,0.00433136364 C8.28353728,-0.0156233367 9.97139285,0.691449123 11.1900455,1.95824909 Z M2.85613545,2.66734 C1.83573465,3.67438071 1.2620203,5.04870751 1.26355273,6.48235545 C1.28519508,9.38275107 3.62564666,11.731552 6.52594682,11.7635227 C7.92491831,11.7622813 9.26830791,11.2157618 10.2708332,10.2400232 C12.3248125,8.1856416 12.3554253,4.86482184 10.3396682,2.77292364 C9.34717315,1.74441163 7.9768449,1.16711506 6.54757409,1.17537727 C5.16625339,1.15466899 3.83510764,1.69266824 2.85608227,2.66734 L2.85613545,2.66734 Z M6.65083545,2.78933909 C8.69124455,2.78933909 9.71972773,3.51876318 9.71972773,4.84779455 C9.73163144,5.76204901 9.10385672,6.56063693 8.21264364,6.76494591 L9.78859818,9.88338591 L7.64620409,9.88338591 L6.31458455,7.06652227 L5.74442227,7.06652227 L5.74442227,9.88338591 L3.79676227,9.88338591 L3.79676227,2.78933909 L6.65085318,2.78935682 L6.65083545,2.78933909 Z M5.74436909,5.91196273 L6.44069636,5.911945 C7.29109136,5.911945 7.71496818,5.61029773 7.71496818,4.99039273 C7.71496818,4.30034091 7.27178636,4.01670455 6.33380091,4.01670455 L5.74436909,4.01670455 L5.74436909,5.91196273 Z" id="Shape"></path>
                    </g>
                </g>
            </g>
        </g>
    </g>
</svg>