<?xml version="1.0" encoding="UTF-8"?>
<svg width="369px" height="95px" viewBox="0 0 369 95" version="1.1" xmlns="http://www.w3.org/2000/svg" xmlns:xlink="http://www.w3.org/1999/xlink">
    <!-- Generator: Sketch 52.5 (67469) - http://www.bohemiancoding.com/sketch -->
    <title>Logo Icon + Text</title>
    <desc>Created with Sketch.</desc>
    <defs>
        <path d="M200.967,65.3381773 C199.760818,64.1395124 199.158478,62.5906981 199.158478,60.6907397 C199.158478,58.8365395 199.760818,57.29817 200.967,56.076626 C202.17168,54.8565742 203.706547,54.2453049 205.572601,54.2453049 C207.438154,54.2453049 208.973521,54.8565742 210.180703,56.076626 C211.385384,57.29817 211.987724,58.8365395 211.987724,60.6907397 C211.987724,62.5906981 211.385384,64.1395124 210.180703,65.3381773 C208.973521,66.5373395 207.438154,67.1361746 205.572601,67.1361746 C203.706547,67.1361746 202.17168,66.5373395 200.967,65.3381773 Z M153.63827,63.8793872 L153.63827,13.536955 L165.786131,13.536955 L165.786131,31.6507209 C165.786131,34.0943061 166.433996,36.0733466 167.731229,37.588837 C169.027961,39.1033326 170.789456,39.8837082 173.019216,39.928969 C174.975821,39.928969 176.512689,39.3301339 177.627318,38.1309717 C178.741447,36.9333016 179.297761,35.2934684 179.297761,33.2124668 L179.297761,13.536955 L191.446623,13.536955 L191.446623,36.6721816 C191.446623,40.9699672 190.229435,44.385416 187.79506,46.9180307 C185.360686,49.4506454 182.097343,50.7164554 178.00253,50.7164554 C175.317514,50.7164554 172.940671,50.174818 170.871002,49.0890565 C168.800833,48.0032949 167.105376,46.3977803 165.786131,44.2715179 L165.786131,63.8793872 L153.63827,63.8793872 Z M5.47759356,58.6559937 L5.47759356,48.4777871 L0.358202301,48.4777871 L0.358202301,40.4725958 L5.47759356,40.4725958 L5.47759356,24.7307938 C5.47759356,21.0681514 6.60322929,18.1948374 8.8555013,16.1143332 C11.1077733,14.0343263 14.0534369,12.9933282 17.6934927,12.9933282 C19.5130203,12.9933282 21.3095349,13.20869 23.0840371,13.6384188 C24.8585393,14.0676502 26.4284259,14.66748 27.793697,15.4364161 L25.4733865,23.9847368 C23.6528584,23.17054 22.083472,22.7631929 20.7637267,22.7631929 C18.6255191,22.7631929 17.5564153,24.0528767 17.5564153,26.6307522 L17.5564153,40.4725958 L27.1113116,40.4725958 L27.1113116,48.4777871 L17.5564153,48.4777871 L17.5564153,58.6559937 L5.47759356,58.6559937 Z M50.6896278,49.0204192 C48.6654847,47.8898942 47.0155528,46.2619979 45.742834,44.1357356 L45.742834,50.2419632 L33.5939728,50.2419632 L33.5939728,13.536955 L45.742834,13.536955 L45.742834,32.2619902 C46.0149878,34.5692957 47.0385658,36.3896747 48.813068,37.7246193 C50.5870699,39.0585692 52.9073803,39.7255441 55.7739993,39.7255441 C56.5924616,39.7255441 57.2073088,39.7036598 57.6165399,39.6569069 L57.6165399,50.7164554 C55.0235755,50.7164554 52.7142713,50.1509442 50.6896278,49.0204192 Z M118.96919,45.4930619 L118.96919,50.2419632 L106.821329,50.2419632 L106.821329,0.373028485 L118.96919,0.373028485 L118.96919,18.2853589 C120.288935,16.6117045 121.892341,15.3349523 123.780907,14.4526156 C125.668473,13.5697815 127.773162,13.1291105 130.093473,13.1291105 C133.459373,13.1291105 136.429051,13.8980466 138.999502,15.4364161 C141.570955,16.9742882 143.549072,19.1443192 144.937356,21.948996 C146.323639,24.7531755 147.017531,28.0109576 147.017531,31.7198555 C147.017531,35.4740141 146.302627,38.7865071 144.869317,41.6598212 C143.436508,44.5311458 141.422371,46.7474323 138.828406,48.3081835 C136.235942,49.8689347 133.232745,50.6498076 129.821319,50.6498076 C125.271249,50.6498076 121.653706,48.9308924 118.96919,45.4930619 Z M121.153423,25.4092083 C119.697601,27.0828627 118.96919,29.2767676 118.96919,31.9909228 C118.96919,34.7050781 119.697601,36.9094278 121.153423,38.6059613 C122.609246,40.3019975 124.497312,41.1505129 126.817622,41.1505129 C129.184459,41.1505129 131.106044,40.3019975 132.58488,38.6059613 C134.063715,36.9094278 134.802632,34.7050781 134.802632,31.9909228 C134.802632,29.2767676 134.063715,27.0828627 132.58488,25.4092083 C131.106044,23.7365485 129.184459,22.8989752 126.817622,22.8989752 C124.497312,22.8989752 122.609246,23.7365485 121.153423,25.4092083 Z M69.4912464,48.3081835 C66.4435251,46.7474323 64.0886952,44.5540248 62.4282574,41.7269663 C60.7673194,38.8999078 59.9368504,35.6326756 59.9368504,31.9232803 C59.9368504,28.1681269 60.7673194,24.8785131 62.4282574,22.0504598 C64.0886952,19.2238986 66.4435251,17.0299938 69.4912464,15.4692426 C72.5399682,13.9089888 76.0659596,13.1291105 80.0697207,13.1291105 C84.0739822,13.1291105 87.5994733,13.9089888 90.6476948,15.4692426 C93.6959164,17.0299938 96.0622528,19.2238986 97.744703,22.0504598 C99.428654,24.8785131 100.269629,28.1681269 100.269629,31.9232803 C100.269629,35.6326756 99.428654,38.8999078 97.744703,41.7269663 C96.0622528,44.5540248 93.6959164,46.7474323 90.6476948,48.3081835 C87.5994733,49.8689347 84.0739822,50.6498076 80.0697207,50.6498076 C76.0659596,50.6498076 72.5399682,49.8689347 69.4912464,48.3081835 Z M74.3369831,25.1386383 C72.8811609,26.8117954 72.1527495,29.0285793 72.1527495,31.7870006 C72.1527495,34.5006585 72.8811609,36.6955581 74.3369831,38.3687152 C75.7928053,40.0423697 77.7038846,40.8784508 80.0697207,40.8784508 C82.4350566,40.8784508 84.3571421,40.0423697 85.8364776,38.3687152 C87.3148125,36.6955581 88.0542301,34.5006585 88.0542301,31.7870006 C88.0542301,29.0285793 87.3268193,26.8117954 85.8704968,25.1386383 C84.4151749,23.4644864 82.4805823,22.6284053 80.0697207,22.6284053 C77.7038846,22.6284053 75.7928053,23.4644864 74.3369831,25.1386383 Z M219.289848,40.9470881 L236.419522,40.9470881 L218.677002,20.8632345 L218.677002,13.536955 L252.321003,13.536955 L252.321003,22.7631929 L233.896097,22.7631929 L251.638617,42.8465491 L251.638617,50.174818 L219.289848,50.2419632 L219.289848,40.9470881 Z M199.636248,13.536955 L211.71607,13.536955 L211.71607,50.2419632 L199.636248,50.2419632 L199.636248,13.536955 Z" id="path-1"></path>
        <path d="M0.174128257,47.1648262 C0.174128257,21.1806424 21.4288817,0.115790547 47.6480754,0.115790547 C73.8672691,0.115790547 95.1220225,21.1806424 95.1220225,47.1648262 C95.1220225,73.1494025 73.8672691,94.2140581 47.6480754,94.2140581 C21.4288817,94.2140581 0.174128257,73.1494025 0.174128257,47.1648262 Z M4.61479545,47.1648262 C4.61479545,70.7189785 23.8817499,89.8128397 47.6480754,89.8128397 C71.4140042,89.8128397 90.681157,70.7189785 90.681157,47.1648262 C90.681157,23.6110663 71.4140042,4.51661636 47.6480754,4.51661636 C23.8817499,4.51661636 4.61479545,23.6110663 4.61479545,47.1648262 Z M8.37402222,47.0349053 C8.37402222,25.4177914 26.0829453,7.89377523 47.9273152,7.89377523 C69.7720818,7.89377523 87.4808066,25.4177914 87.4808066,47.0349053 C87.4808066,68.6516266 69.7720818,86.175054 47.9273152,86.175054 C26.0829453,86.175054 8.37402222,68.6516266 8.37402222,47.0349053 Z M36.6777969,20.5814754 C36.0806441,21.4345966 36.2254204,23.2109021 37.1089527,25.8623093 C37.676952,27.5665892 38.6023306,29.6824161 39.1064696,30.1287004 C39.4202178,30.4087565 39.7867201,30.6371975 41.2969555,30.7851739 C41.3148046,30.799893 41.3342403,30.8142197 41.355461,30.8281538 C42.9242019,31.8900905 43.8236001,33.8632399 43.5931479,35.7386542 C43.2649221,36.0024212 42.6546799,36.6255313 41.3820364,38.1824236 C37.9940716,41.742296 35.3236423,45.6742682 33.4401616,49.8737362 L32.1453058,49.8741287 C30.5200426,49.9385004 26.6071149,50.6102818 25.3846473,55.4491492 C24.2910901,59.7787344 24.1885568,64.7098416 24.1808221,65.2171612 C23.955328,66.793679 24.29466,68.1574561 25.1631197,69.1630676 C26.1821071,70.3431499 27.8539764,70.9542885 30.131923,70.9796054 L47.9078795,70.9796054 L47.9469493,70.9796054 L65.7227074,70.9796054 C68.0008524,70.9542885 69.6727216,70.3431499 70.6921057,69.1630676 C71.5599705,68.1574561 71.8996991,66.793679 71.6740067,65.2171612 C71.6666687,64.7098416 71.563937,59.7787344 70.4705781,55.4491492 C69.2471189,50.6102818 65.3351828,49.9385004 63.709523,49.8741287 L63.688104,49.8737362 L62.4150638,49.8737362 C60.5317815,45.6738757 57.8609555,41.742296 54.4731891,38.1824236 C53.2003472,36.6251388 52.5908983,36.0024212 52.2620775,35.7380655 C52.0336086,33.858726 52.9328085,31.8887167 54.5013511,30.82678 C54.522175,30.8132384 54.5410158,30.7995005 54.55827,30.7851739 C56.0681087,30.6371975 56.434611,30.4087565 56.7501441,30.1277191 C57.2528948,29.6824161 58.1780751,27.5665892 58.7460744,25.8623093 C59.6292101,23.2109021 59.774383,21.4345966 59.1774285,20.5820641 C58.6653566,19.8529762 58.2236896,19.2237821 48.37989,19.2237821 C48.2257925,19.2237821 48.0752648,19.2241746 47.925927,19.2245672 C47.7799607,19.2241746 47.6292346,19.2237821 47.4753354,19.2237821 C37.6309409,19.2237821 37.1890755,19.8529762 36.6777969,20.5814754 Z M63.8449781,53.7170011 C64.6771446,53.9438721 65.9287658,54.5820939 66.3753909,56.3793987 C67.0375939,59.0459176 67.7337103,63.5535062 67.7031684,66.186073 C67.6968221,66.7216533 67.4469341,67.0794265 66.9168148,67.3117926 C66.5279019,67.4825346 66.082665,67.5418037 65.7548359,67.5594666 C65.7340119,61.9322423 65.1235714,57.4964831 63.8449781,53.7170011 Z M32.9744974,67.5594666 C33.0119806,62.5414183 33.9907083,57.6842993 35.8852952,53.1180303 C37.7961445,48.5105478 40.5881464,44.3234439 44.1831611,40.6711353 L44.2018035,40.6513135 C44.943336,39.8170328 46.4638842,38.482694 47.3882713,38.4510969 C47.4315058,38.4495268 47.5013158,38.4475643 47.5631928,38.4463867 C47.6199134,38.4446205 47.6577932,38.4434429 47.6851619,38.4426579 C47.7123323,38.4434429 47.7506088,38.4446205 47.807726,38.4463867 C47.8703963,38.4475643 47.9409996,38.4495268 47.9842341,38.4510969 C48.9110011,38.482694 50.4305577,39.8170328 51.1703053,40.6513135 L51.1889477,40.6711353 C54.7839624,44.3228551 57.5761625,48.5105478 59.4870119,53.1180303 C61.3815988,57.6842993 62.3603265,62.5414183 62.3982063,67.5594666 L32.9744974,67.5594666 Z M27.9733673,67.3117926 C27.4430496,67.0794265 27.1935583,66.7216533 27.1870136,66.186073 C27.1562734,63.55488 27.8523898,59.0467026 28.5145928,56.3792024 C28.9612179,54.5820939 30.2122442,53.9438721 31.0450056,53.7170011 C29.7664124,57.4968756 29.1559718,61.9328311 29.1349495,67.5594666 C28.807517,67.5418037 28.3620818,67.4825346 27.9733673,67.3117926 Z M45.9978234,31.2826807 C46.3843564,31.2883721 46.7996464,31.292886 47.2365536,31.292886 C47.3858914,31.292886 47.5302711,31.2919047 47.6736591,31.2907272 L47.6863519,31.2915122 L47.7022178,31.2907272 C47.8418377,31.2919047 47.9868124,31.292886 48.1357535,31.292886 C48.5726607,31.292886 48.9883473,31.2883721 49.3744837,31.2826807 C48.7178337,32.4768934 48.3499432,33.7921955 48.3090885,35.100825 C48.0929156,35.0835545 47.8719829,35.0694241 47.6984496,35.0690316 C47.5215448,35.0690316 47.290101,35.0841433 47.0632186,35.1012175 C47.0223639,33.7927843 46.6546717,32.4772859 45.9978234,31.2826807 Z M47.4705756,27.4631627 L47.4449919,27.4631627 L47.4257545,27.4631627 C47.2740368,27.4635552 47.1239057,27.4639477 46.9698081,27.4639477 C44.0243037,27.4639477 42.0408679,27.3764179 41.092682,27.2904582 C40.6781853,26.3990672 40.043946,24.6211917 39.7274213,23.3916531 C41.1158859,23.27547 43.5887848,23.1679222 46.9991601,23.1679222 C47.1433414,23.1679222 47.2843496,23.1687072 47.4243662,23.1690997 L47.4644276,23.1690997 C47.6058324,23.1687072 47.7468406,23.1679222 47.8908237,23.1679222 C51.3015956,23.1679222 53.7746928,23.27547 55.1629591,23.3916531 C54.8462361,24.6211917 54.2119967,26.3990672 53.7976984,27.2904582 C52.8489175,27.3764179 50.86568,27.4639477 47.9203739,27.4639477 L47.4705756,27.4631627 Z" id="path-3"></path>
    </defs>
    <g id="Welcome" stroke="none" stroke-width="1" fill="none" fill-rule="evenodd">
        <g id="Desktop-Projects-HD" transform="translate(-400.000000, -278.000000)">
            <g id="Trophiz-Project" transform="translate(349.000000, 194.000000)">
                <g id="Logo-Icon-+-Text" transform="translate(51.000000, 83.000000)">
                    <g id="g10" transform="translate(242.902299, 48.361386) scale(-1, 1) rotate(-180.000000) translate(-242.902299, -48.361386) translate(116.402299, 14.361386)">
                        <g id="g12">
                            <g id="g14-Clipped">
                                <mask id="mask-2" fill="white">
                                    <use xlink:href="#path-1"></use>
                                </mask>
                                <g id="path16"></g>
                                <g id="g14" mask="url(#mask-2)" fill="#FFFFFF">
                                    <g transform="translate(-6.003391, -5.968456)" id="path20">
                                        <polygon points="0.278657377 0.292951703 264.408329 0.292951703 264.408329 79.1536602 0.278657377 79.1536602"></polygon>
                                    </g>
                                </g>
                            </g>
                        </g>
                    </g>
                    <g id="g22" transform="translate(48.000000, 48.000000) scale(1, -1) translate(-48.000000, -48.000000) ">
                        <g id="g24-Clipped" transform="translate(0.000000, 0.249458)">
                            <mask id="mask-4" fill="white">
                                <use xlink:href="#path-3"></use>
                            </mask>
                            <g id="path26"></g>
                            <g id="g24" mask="url(#mask-4)" fill="#FFFFFF">
                                <g transform="translate(-2.379885, -2.355062)" id="path30">
                                    <polygon points="0.142198132 0.0841934656 99.9137227 0.0841934656 99.9137227 98.9559754 0.142198132 98.9559754"></polygon>
                                </g>
                            </g>
                        </g>
                    </g>
                </g>
            </g>
        </g>
    </g>
</svg>