<?xml version="1.0" encoding="UTF-8"?>
<svg width="394px" height="111px" viewBox="0 0 394 111" version="1.1" xmlns="http://www.w3.org/2000/svg" xmlns:xlink="http://www.w3.org/1999/xlink">
    <!-- Generator: Sketch 52.5 (67469) - http://www.bohemiancoding.com/sketch -->
    <title>logo-coral</title>
    <desc>Created with Sketch.</desc>
    <g id="Welcome" stroke="none" stroke-width="1" fill="none" fill-rule="evenodd">
        <g id="Desktop-Projects-HD" transform="translate(-407.000000, -564.000000)">
            <g id="Udemy-Project" transform="translate(349.000000, 488.000000)">
                <g id="logo-coral" transform="translate(58.000000, 76.000000)">
                    <path d="M363.177669,96 L374.467159,96 L394,46.4767116 L382.825356,46.4767116 L374.751539,71.1416947 L366.245684,46.4767116 L353.773103,46.4767116 L368.624625,82.2485971 L363.177669,96 Z M307.144028,58.2328844 L307.144028,83.6182662 L295.754277,83.6182662 L295.754277,46.4767116 L303.756999,46.4767116 L306.135941,49.7212402 C309.234945,47.1259821 312.550879,45.6104096 316.371769,45.6104096 C321.490595,45.6104096 325.38258,47.1259821 327.761521,50.8775253 C331.221468,47.7023008 334.898345,45.6104096 339.585133,45.6104096 C348.379013,45.6104096 353.497839,50.155303 353.497839,62.4877946 L353.497839,83.6182662 L342.108087,83.6182662 L342.108087,63.7863356 C342.108087,58.0888047 339.800241,56.4291527 336.123363,56.4291527 C333.961352,56.4291527 332.160284,57.0054714 330.140462,58.3040124 C330.286298,59.6025534 330.357392,60.9722223 330.357392,62.4877946 L330.357392,83.6182662 L318.96764,83.6182662 L318.96764,63.7863356 C318.96764,58.0888047 316.659795,56.4291527 312.911822,56.4291527 C310.820906,56.4291527 309.090932,56.9343435 307.144028,58.2328844 Z M267.420264,61.4062851 L282.054856,61.4062851 C281.261875,56.5750561 278.666003,54.2661336 274.774019,54.2661336 C271.456261,54.2661336 268.286162,56.213945 267.420264,61.4062851 Z M275.566999,84.3404883 C264.609285,84.3404883 255.813582,78.9311168 255.813582,64.6508137 C255.813582,51.3079405 264.32126,45.5392817 274.125051,45.5392817 C285.94684,45.5392817 291.209678,53.8320707 291.209678,66.8867845 L267.347346,66.8867845 C268.14215,73.304714 272.107052,75.181397 277.36989,75.181397 C282.459549,75.181397 286.440858,73.9248036 289.521633,71.8511504 L287.975776,80.8898712 C285.035368,83.1623178 281.506149,84.3404883 275.566999,84.3404883 Z M233.156216,74.7491582 C235.750265,74.7491582 237.697168,74.3150955 239.715167,72.8013471 L239.715167,56.6461841 C237.914099,55.5628508 236.11303,55.0594837 233.517159,55.0594837 C227.966296,55.0594837 224.794373,58.8092031 224.794373,65.0830528 C224.794373,71.2146466 228.039213,74.7491582 233.156216,74.7491582 Z M241.950096,80.878928 C238.995104,83.1148993 235.608075,84.4845677 230.777274,84.4845677 C220.612541,84.4845677 213.260609,78.2107186 213.260609,65.3000842 C213.260609,52.4624018 221.695369,45.5392817 232.507248,45.5392817 C235.030202,45.5392817 237.482061,45.9003928 239.715167,46.7648709 L239.715167,31 L251.106742,31 L251.106742,83.6182662 L243.897,83.6182662 L241.950096,80.878928 Z M165,61.6214928 L165,34.0949775 L176.821789,34.0949775 L176.821789,61.4062851 C176.821789,71.2146466 181.218729,73.2335859 187.274548,73.2335859 C193.835322,73.2335859 197.222351,70.3483444 197.222351,61.4062851 L197.222351,34.0949775 L209.117059,34.0949775 L209.117059,61.6214928 C209.117059,77.8496072 202.053152,84.6286477 186.698498,84.6286477 C172.424849,84.6286477 165,78.7870368 165,61.6214928 Z" id="Fill-1" fill="#FFFFFF" fill-rule="nonzero"></path>
                    <path d="M134.698389,63.2580257 C134.217592,62.8757855 133.676467,62.6185434 133.08781,62.5080379 C129.610714,65.9427645 125.367633,69.5604592 121.599865,71.9915791 C119.861317,73.1364875 117.674877,73.7089421 116.227002,73.7089421 C112.894327,73.7089421 111.446451,70.5604427 111.011358,65.5550897 C110.431841,58.8323733 110.040622,50.7799684 110.040622,38.3345194 C110.040622,25.5702349 107.117448,16.8928403 99.3296305,16.211692 C99.0005681,16.1827069 98.6678486,16.1627797 98.3205049,16.1627797 C93.5399548,16.1627797 91.2218906,18.5938995 88.1798884,24.745973 C85.5729802,30.0375533 81.5163686,37.762065 73.9844878,52.3524066 C67.46539,64.9409692 60.2223538,76.0983956 53.9920995,83.8229076 C52.2572077,85.9641769 50.886113,87.4351673 49.5972839,88.2721102 C48.7362365,88.8336956 47.9099234,89.114488 47.0397353,89.114488 C44.5809055,89.114488 42.7856856,87.0583622 42.1860602,82.2703969 C42.0434663,81.1327343 41.9685131,79.8410886 41.9685131,78.3864023 C41.9685131,68.5169977 45.7362813,52.4955201 52.2535514,28.8926444 C57.0341016,11.7280695 55.0067095,0 44.5754211,0 C44.558968,0 44.5425149,0 44.5260617,0 C44.5041242,0 44.4821867,0 44.4584211,0 L44.4511086,0.00181156464 C42.0891695,0.0289850342 40.1312462,0.876797289 38.24462,2.34778777 C36.3872437,3.79703948 34.5280393,6.92742319 32.7931475,11.1356878 C30.8370524,15.8765525 18.943263,39.5174711 0.0130156497,51.6966201 C-0.210015753,56.3269794 2.43528293,60.955527 7.79534909,61.4573305 C12.6746181,61.9156563 16.1389173,59.8776461 20.5995453,56.9084916 C20.2649982,58.3849168 19.9560449,59.765329 19.6745135,61.0279896 C19.3417945,62.5189073 19.058435,63.8051182 18.8317473,64.8431448 C18.4917158,66.3884094 18.2759969,67.3829584 18.2120125,67.6583162 C17.5922777,70.4752991 17.1498712,73.1509799 16.8628553,75.690794 C14.193791,99.3335238 25.2521267,111 38.2025731,111 C40.3670745,111 42.5114666,110.74457 44.6412337,110.208347 C58.9097591,106.62326 72.6463,90.404322 88.9056545,53.0679746 C88.6588577,57.1295025 88.6332636,60.9229189 88.8105922,64.442789 C89.8818738,85.8409903 98.4228801,92.2611757 110.490341,92.2611757 C119.616347,92.2611757 128.162838,87.5420499 132.508294,81.6762033 C135.696546,77.5277204 137,72.9498962 137,69.3738679 C137,66.5985509 136.111531,64.3830073 134.698389,63.2580257" id="Fill-4" fill="#EA5252"></path>
                </g>
            </g>
        </g>
    </g>
</svg>